<svg width="24" height="24" viewBox="0 0 24 24" fill="none" xmlns="http://www.w3.org/2000/svg">
  <path d="M16.5 3C17.4 3 18.1 3.1 19 3.4C18.1 4.4 17.5 5.7 17.5 7.1C17.5 8.4 18 9.6 18.8 10.4C19.6 11.2 21 12 21 12C21 12 19.7 16.1 17.5 18.6C16.7 19.4 15.9 20 15 20C14.1 20 13.7 19.5 12.5 19.5C11.3 19.5 10.8 20 10 20C9.1 20 8.3 19.4 7.5 18.6C5.3 16.1 4 12 4 12C4 12 5.4 11.2 6.1 10.5C6.9 9.7 7.5 8.4 7.5 7.1C7.5 5.7 6.9 4.4 6 3.4C6.9 3.1 7.6 3 8.5 3C9.5 3 10.2 3.5 10.8 3.8C11.4 4.1 11.9 4.3 12.5 4.3C13.1 4.3 13.6 4.1 14.2 3.8C14.8 3.5 15.5 3 16.5 3Z" stroke="currentColor" stroke-width="2" stroke-linecap="round" stroke-linejoin="round"/>
</svg> 