<svg width="48" height="48" viewBox="0 0 48 48" fill="none" xmlns="http://www.w3.org/2000/svg">
<g clip-path="url(#clip0_1405_30056)">
<path d="M24 48C37.2548 48 48 37.2548 48 24C48 10.7452 37.2548 0 24 0C10.7452 0 0 10.7452 0 24C0 37.2548 10.7452 48 24 48Z" fill="#33B36B"/>
<path d="M32.6667 17.4118C32.1176 16.8627 31.2941 16.8627 30.7451 17.4118L20.5882 27.7059L16.3333 23.451C15.7843 22.902 14.8235 22.902 14.4118 23.451C13.8627 24 13.8627 24.9608 14.4118 25.3726L19.6275 30.5882C20.1765 31.1373 21 31.1373 21.549 30.5882L32.8039 19.3333C33.2157 18.9216 33.2157 17.9608 32.6667 17.4118Z" fill="white"/>
</g>
<defs>
<clipPath id="clip0_1405_30056">
<rect width="48" height="48" fill="white"/>
</clipPath>
</defs>
</svg>
