<svg width="24" height="24" viewBox="0 0 24 24" fill="none" xmlns="http://www.w3.org/2000/svg">
  <path d="M10.5 3.75H5.625C4.93464 3.75 4.375 4.30964 4.375 5V10.5C4.375 10.8287 4.50476 11.1437 4.73504 11.374L13.126 19.765C13.6055 20.2445 14.3945 20.2445 14.874 19.765L19.765 14.874C20.2445 14.3945 20.2445 13.6055 19.765 13.126L11.374 4.73504C11.1437 4.50476 10.8287 4.375 10.5 4.375V3.75Z" stroke="currentColor" stroke-width="2" stroke-linecap="round" stroke-linejoin="round"/>
  <path d="M7.8125 7.8125C7.8125 7.8125 7.8125 7.8125 7.8125 7.8125C7.8125 7.8125 7.8125 7.8125 7.8125 7.8125C7.8125 7.8125 7.8125 7.8125 7.8125 7.8125C7.8125 7.8125 7.8125 7.8125 7.8125 7.8125" stroke="currentColor" stroke-width="2" stroke-linecap="round" stroke-linejoin="round"/>
</svg> 