<svg width="12" height="12" viewBox="0 0 12 12" fill="none" xmlns="http://www.w3.org/2000/svg">
<g clip-path="url(#clip0_0_285)">
<path d="M6.50892 1.02869C6.42468 0.858036 6.25087 0.75 6.06056 0.75C5.87025 0.75 5.69644 0.858036 5.61221 1.02869L4.18343 3.92323L0.988247 4.39026C0.799967 4.41778 0.643627 4.54978 0.584938 4.73078C0.52625 4.91179 0.575386 5.11041 0.711695 5.24318L3.0233 7.49468L2.47776 10.6755C2.44558 10.8631 2.52271 11.0527 2.67669 11.1645C2.83068 11.2764 3.03483 11.2911 3.20329 11.2025L6.06056 9.69992L8.91784 11.2025C9.08629 11.2911 9.29044 11.2764 9.44443 11.1645C9.59842 11.0527 9.67554 10.8631 9.64337 10.6755L9.09782 7.49468L11.4094 5.24318C11.5457 5.11041 11.5949 4.91179 11.5362 4.73078C11.4775 4.54978 11.3212 4.41778 11.1329 4.39026L7.93769 3.92323L6.50892 1.02869Z" fill="#FC9231"/>
</g>
<defs>
<clipPath id="clip0_0_285">
<rect width="12" height="12" fill="white"/>
</clipPath>
</defs>
</svg>
