<svg width="12" height="12" viewBox="0 0 12 12" fill="none" xmlns="http://www.w3.org/2000/svg">
<g clip-path="url(#clip0_0_264)">
<path fill-rule="evenodd" clip-rule="evenodd" d="M6.39037 0.993852C6.31666 0.844532 6.16458 0.75 5.99806 0.75C5.83154 0.75 5.67946 0.844532 5.60575 0.993852L4.16245 3.91783L0.934785 4.3896C0.77004 4.41368 0.633242 4.52918 0.581889 4.68756C0.530537 4.84594 0.573531 5.01974 0.692802 5.13591L3.02796 7.41035L2.47686 10.6235C2.4487 10.7877 2.51619 10.9536 2.65093 11.0515C2.78567 11.1493 2.96429 11.1622 3.11169 11.0847L5.99806 9.56681L8.88443 11.0847C9.03183 11.1622 9.21045 11.1493 9.34519 11.0515C9.47993 10.9536 9.54742 10.7877 9.51926 10.6235L8.96816 7.41035L11.3033 5.13591C11.4226 5.01974 11.4656 4.84594 11.4142 4.68756C11.3629 4.52918 11.2261 4.41368 11.0613 4.3896L7.83367 3.91783L6.39037 0.993852ZM5.99806 8.635C6.06801 8.635 6.13795 8.65176 6.20169 8.68528L8.50698 9.89761L8.06686 7.33146C8.0425 7.18948 8.08961 7.04461 8.1928 6.94409L10.0581 5.12726L7.47978 4.7504C7.33744 4.72959 7.21442 4.64014 7.15075 4.51115L5.99806 2.17592V8.635Z" fill="#FC9231"/>
</g>
<defs>
<clipPath id="clip0_0_264">
<rect width="12" height="12" fill="white"/>
</clipPath>
</defs>
</svg>
