<svg width="12" height="12" viewBox="0 0 12 12" fill="none" xmlns="http://www.w3.org/2000/svg">
<g clip-path="url(#clip0_0_291)">
<path fill-rule="evenodd" clip-rule="evenodd" d="M5.99806 0.75C6.16458 0.75 6.31666 0.844532 6.39037 0.993852L7.83367 3.91783L11.0613 4.3896C11.2261 4.41368 11.3629 4.52918 11.4142 4.68756C11.4656 4.84594 11.4226 5.01974 11.3033 5.13591L8.96816 7.41035L9.51926 10.6235C9.54742 10.7877 9.47993 10.9536 9.34519 11.0515C9.21045 11.1493 9.03183 11.1622 8.88443 11.0847L5.99806 9.56681L3.11169 11.0847C2.96429 11.1622 2.78567 11.1493 2.65093 11.0515C2.51619 10.9536 2.4487 10.7877 2.47686 10.6235L3.02796 7.41035L0.692802 5.13591C0.573531 5.01974 0.530537 4.84594 0.581889 4.68756C0.633242 4.52918 0.77004 4.41368 0.934785 4.3896L4.16245 3.91783L5.60575 0.993852C5.67946 0.844532 5.83154 0.75 5.99806 0.75ZM5.99806 2.17592L4.84537 4.51115C4.7817 4.64014 4.65868 4.72959 4.51633 4.7504L1.93799 5.12726L3.80332 6.94409C3.90651 7.04461 3.95361 7.18948 3.92926 7.33146L3.48914 9.89761L5.79443 8.68528C5.92191 8.61824 6.07421 8.61824 6.20169 8.68528L8.50698 9.89761L8.06686 7.33146C8.0425 7.18948 8.08961 7.04461 8.1928 6.94409L10.0581 5.12726L7.47978 4.7504C7.33744 4.72959 7.21442 4.64014 7.15075 4.51115L5.99806 2.17592Z" fill="#CAD0D9"/>
</g>
<defs>
<clipPath id="clip0_0_291">
<rect width="12" height="12" fill="white"/>
</clipPath>
</defs>
</svg>
