<svg xmlns="http://www.w3.org/2000/svg" width="70" height="32" viewBox="0 0 70 32" fill="none">
  <path d="M26.513 21.5823H20.9834L24.2603 7.1377H29.7899L26.513 21.5823Z" fill="#00579F"/>
  <path d="M47.8039 7.3677C46.7679 6.9777 45.0159 6.5477 42.8899 6.5477C37.4999 6.5477 33.7839 9.2977 33.7639 13.1477C33.7239 16.0177 36.3839 17.6277 38.3659 18.6277C40.3879 19.6477 41.0099 20.3077 41.0099 21.1977C40.9899 22.5777 39.2579 23.2177 37.6459 23.2177C35.4199 23.2177 34.2239 22.9077 32.4129 22.1577L31.6969 21.8577L30.9299 26.4577C32.1659 26.9877 34.5139 27.4577 36.9799 27.4777C42.7299 27.4777 46.3859 24.7677 46.4259 20.6377C46.4459 18.3177 45.0159 16.5277 42.0139 15.0477C40.1829 14.0877 39.0179 13.4277 39.0179 12.4877C39.0379 11.6377 40.0079 10.7677 42.0939 10.7677C43.7869 10.7277 45.0559 11.1177 46.0719 11.5077L46.5719 11.7177L47.3079 7.4277L47.8039 7.3677Z" fill="#00579F"/>
  <path d="M55.2598 17.3177C55.7598 16.1577 57.6098 11.4477 57.6098 11.4477C57.5898 11.4877 58.0898 10.1277 58.3898 9.2777L58.8098 11.2577C58.8098 11.2577 59.9258 16.3477 60.1658 17.3177C59.4458 17.3177 56.2798 17.3177 55.2598 17.3177ZM63.0158 7.1377H59.0298C57.7738 7.1377 56.8338 7.5077 56.2798 8.8477L48.1299 27.1377H53.9798C53.9798 27.1377 54.9798 24.5277 55.1998 23.9277C55.7798 23.9277 61.3358 23.9277 62.0758 23.9277C62.2358 24.6677 62.7558 27.1377 62.7558 27.1377H67.9858L63.0158 7.1377Z" fill="#00579F"/>
  <path d="M18.8499 7.1377L13.4199 21.3577L12.8999 18.8577C11.9999 15.9677 9.07993 12.8577 5.87993 11.1577L10.8799 27.1177H16.7699L24.9199 7.1377H18.8499Z" fill="#00579F"/>
  <path d="M8.62987 7.1377H0.129866L0.00986633 7.5477C6.95987 9.3377 11.6799 13.7777 13.6399 18.8577L11.6999 8.8677C11.3399 7.5277 10.0899 7.1577 8.62987 7.1377Z" fill="#FAA61A"/>
</svg> 